<svg xmlns="http://www.w3.org/2000/svg" width="769" height="246"><path d="M0 0 C5.34193332 3.36090945 12.4842156 3.83177794 18.625 4.875 C18.56852295 5.69178223 18.5120459 6.50856445 18.45385742 7.35009766 C18.21250971 11.06553361 18.01213114 14.78209896 17.8125 18.5 C17.72291016 19.78519531 17.63332031 21.07039063 17.54101562 22.39453125 C16.85899418 30.02044421 16.85899418 30.02044421 20.09375 36.5625 C20.9290625 37.325625 21.764375 38.08875 22.625 38.875 C22.9375 42.25 22.9375 42.25 22.625 44.875 C20.645 45.535 18.665 46.195 16.625 46.875 C16.56441406 47.47828125 16.50382812 48.0815625 16.44140625 48.703125 C16.31572266 49.90195313 16.31572266 49.90195313 16.1875 51.125 C16.10628906 51.91390625 16.02507812 52.7028125 15.94140625 53.515625 C15.625 55.875 15.625 55.875 15.08203125 57.98046875 C14.49195592 60.04705339 14.49195592 60.04705339 14.75 62.9375 C14.625 65.875 14.625 65.875 13.36791992 67.55395508 C11.21173786 69.18823175 10.27646662 69.1694822 7.61328125 68.94921875 C6.85595703 68.89443359 6.09863281 68.83964844 5.31835938 68.78320312 C4.53267578 68.71037109 3.74699219 68.63753906 2.9375 68.5625 C2.14021484 68.50126953 1.34292969 68.44003906 0.52148438 68.37695312 C-1.44516953 68.22386031 -3.41028989 68.05129291 -5.375 67.875 C-5.375 68.535 -5.375 69.195 -5.375 69.875 C-3.77141543 71.23879622 -2.11464875 72.54025959 -0.4375 73.8125 C10.19144053 82.34848313 19.84693834 93.89407681 21.625 107.875 C22.75351425 120.89631828 20.04904072 132.09679378 11.87890625 142.43359375 C2.67352948 152.40475576 -9.5149424 156.24756077 -22.84765625 156.91015625 C-45.35215245 156.68585895 -45.35215245 156.68585895 -53.375 150.875 C-55.21950705 147.1742297 -55.58326489 144.34452887 -55.38671875 140.2421875 C-55.33966797 139.18902344 -55.29261719 138.13585937 -55.24414062 137.05078125 C-55.18419922 135.96152344 -55.12425781 134.87226563 -55.0625 133.75 C-55.01416016 132.65300781 -54.96582031 131.55601562 -54.91601562 130.42578125 C-54.52312904 122.31938711 -54.52312904 122.31938711 -53.375 118.875 C-52.385 118.875 -51.395 118.875 -50.375 118.875 C-50.28863281 119.63683594 -50.20226562 120.39867187 -50.11328125 121.18359375 C-49.06069705 128.91863913 -47.692699 136.17411515 -41.515625 141.46875 C-33.13341184 147.05689211 -24.24509057 147.79518602 -14.375 146.875 C-10.82802514 145.89204749 -7.64398228 144.55234297 -4.375 142.875 C-3.66601562 142.58367187 -2.95703125 142.29234375 -2.2265625 141.9921875 C0.11748534 140.5778464 0.59999947 139.38761191 1.625 136.875 C1.97820312 136.14023438 2.33140625 135.40546875 2.6953125 134.6484375 C6.2742906 126.5095762 6.79308259 119.91218534 4.1875 111.375 C1.62469421 105.00382897 -2.49546225 100.60531641 -7.375 95.875 C-8.25929688 95.01648438 -9.14359375 94.15796875 -10.0546875 93.2734375 C-15.79788828 87.88816992 -21.79131398 83.187957 -28.375 78.875 C-27.04724975 74.74974387 -25.51980915 72.77321861 -22.0625 70.1875 C-21.30324219 69.60613281 -20.54398438 69.02476563 -19.76171875 68.42578125 C-15.47592291 65.64106612 -11.95968174 64.62265719 -6.85546875 64.6796875 C-5.83388672 64.68613281 -4.81230469 64.69257812 -3.75976562 64.69921875 C-2.17711914 64.72435547 -2.17711914 64.72435547 -0.5625 64.75 C0.51193359 64.75902344 1.58636719 64.76804687 2.69335938 64.77734375 C5.33746854 64.80084694 7.98111872 64.83370425 10.625 64.875 C10.625 61.905 10.625 58.935 10.625 55.875 C11.285 55.875 11.945 55.875 12.625 55.875 C12.3465625 54.946875 12.3465625 54.946875 12.0625 54 C11.625 51.875 11.625 51.875 12.625 49.875 C12.58375 49.05 12.5425 48.225 12.5 47.375 C12.54125 46.55 12.5825 45.725 12.625 44.875 C15.625 42.875 15.625 42.875 19.625 42.875 C19.22667969 42.41351563 18.82835938 41.95203125 18.41796875 41.4765625 C11.89711514 33.44845563 10.46923427 24.60557939 8.37109375 14.66015625 C7.73607191 11.69439086 7.73607191 11.69439086 5.625 8.875 C5.49544922 10.43347656 5.49544922 10.43347656 5.36328125 12.0234375 C4.13869869 24.82239956 0.89503217 34.67497257 -9.21484375 43.296875 C-10.74818359 44.44929688 -10.74818359 44.44929688 -12.3125 45.625 C-13.15022949 46.2600647 -13.15022949 46.2600647 -14.00488281 46.90795898 C-17.55747532 49.58227717 -21.17823006 52.1466791 -24.82983398 54.68334961 C-39.19395646 64.71850494 -49.20250549 76.40964125 -52.921875 93.93359375 C-53.6864344 98.89663879 -54.11722685 103.86175664 -54.375 108.875 C-55.365 108.875 -56.355 108.875 -57.375 108.875 C-58.24414206 90.50230251 -54.5010747 75.49787934 -42.5625 60.9375 C-36.39811387 54.36003645 -28.7885227 49.47190913 -21.43945312 44.32470703 C-11.05694979 37.03387155 -1.89355281 28.9108428 0.625 15.875 C0.82518127 13.14980497 0.77433575 10.61282216 0.625 7.875 C-14.18476322 17.23394759 -24.30410721 28.35419672 -28.375 45.875 C-29.035 45.875 -29.695 45.875 -30.375 45.875 C-30.99950998 34.63382042 -27.2579624 25.72263941 -20.375 16.875 C-16.66766151 13.0876027 -12.78242508 9.81328339 -8.375 6.875 C-17.69408927 7.90258019 -25.19188461 10.2728506 -31.63671875 17.36328125 C-37.12045985 24.52964901 -40.24968236 31.64528079 -42.58203125 40.29296875 C-42.79641846 41.08695068 -43.01080566 41.88093262 -43.23168945 42.69897461 C-43.65117771 44.28093089 -44.05790836 45.86634193 -44.44995117 47.45532227 C-46.17408307 54.12230353 -49.11278237 59.29177819 -54.375 63.875 C-58.10402668 65.11800889 -61.50210637 65.40212352 -65.375 64.875 C-68.78647754 63.16926123 -70.75847495 61.83999573 -72.8125 58.625 C-73.58624207 54.84226099 -73.6174002 51.52133431 -72.375 47.875 C-69.91904142 44.99973141 -68.12676541 43.22468062 -64.33984375 42.46875 C-61.26130879 42.3306475 -58.75914767 42.70755102 -55.9375 43.9375 C-53.56001381 46.88558287 -53.375 49.1294684 -53.375 52.875 C-55.0625 55.8125 -55.0625 55.8125 -57.375 57.875 C-58.695 57.875 -60.015 57.875 -61.375 57.875 C-61.375 57.215 -61.375 56.555 -61.375 55.875 C-60.055 55.215 -58.735 54.555 -57.375 53.875 C-57.20812552 51.45854218 -57.20812552 51.45854218 -57.375 48.875 C-58.035 48.215 -58.695 47.555 -59.375 46.875 C-62.90394948 46.96243691 -62.90394948 46.96243691 -66.375 47.875 C-68.70249345 51.36624017 -68.87799316 52.76722251 -68.375 56.875 C-66.93838689 59.39506844 -66.93838689 59.39506844 -64.375 60.875 C-60.3725406 61.45717591 -58.18784665 61.3183709 -54.625 59.375 C-51.78970103 56.22466781 -50.13914114 53.06218155 -49.375 48.875 C-49.66415161 47.20010292 -50.00154556 45.53313771 -50.375 43.875 C-51.28227036 31.53961264 -48.74720665 22.75232542 -41.375 12.875 C-42.17164062 12.62105469 -42.96828125 12.36710937 -43.7890625 12.10546875 C-49.19805176 10.34853428 -54.3965803 8.64078872 -59.375 5.875 C-57.13625529 0.08733613 -51.60676814 -2.32613959 -46.375 -5.125 C-43.08654525 -6.44133232 -39.83069258 -7.36438829 -36.375 -8.125 C-35.281875 -8.393125 -34.18875 -8.66125 -33.0625 -8.9375 C-21.53060834 -9.52386737 -9.7442945 -6.13529654 0 0 Z M-54.375 3.875 C-47.65992405 8.3517173 -37.47756188 10.875 -29.375 10.875 C-26.20833333 9.125 -26.20833333 9.125 -23.375 6.875 C-18.96651463 5.14580962 -14.68414945 4.36866125 -10 3.75 C-8.75476563 3.58242188 -7.50953125 3.41484375 -6.2265625 3.2421875 C-5.28554687 3.12101562 -4.34453125 2.99984375 -3.375 2.875 C-6.36499625 0.41265015 -9.16639023 -0.9655175 -12.8125 -2.25 C-13.73933594 -2.58257812 -14.66617188 -2.91515625 -15.62109375 -3.2578125 C-29.42902473 -7.60584183 -42.68184118 -4.37899446 -54.375 3.875 Z " fill="#DCC48E" transform="translate(97.375,50.125)"></path><path d="M0 0 C9.24 0 18.48 0 28 0 C26.35 1.65 24.7 3.3 23 5 C20.37853507 11.16679199 20.74268899 17.4440183 20.8046875 24.05859375 C20.80893234 25.77502831 20.80893234 25.77502831 20.81326294 27.52613831 C20.82441422 31.16336743 20.84950986 34.80034591 20.875 38.4375 C20.88503631 40.91080372 20.89416102 43.38411132 20.90234375 45.85742188 C20.92433704 51.90503273 20.95776436 57.95249845 21 64 C23.25470416 61.75991596 25.50650498 59.51693476 27.7578125 57.2734375 C28.39307861 56.64236084 29.02834473 56.01128418 29.68286133 55.36108398 C33.42657664 51.62711159 37.01151673 47.82559583 40.4296875 43.7890625 C42.82705094 41.05773798 45.43882182 38.55252804 48.02734375 36.00390625 C50.57210274 33.41883425 52.91792631 30.68754939 55.28125 27.9375 C56.97695834 26.02597424 58.74007689 24.22795077 60.5625 22.4375 C61.71092864 21.29426787 62.85677973 20.14844045 64 19 C64.87785156 18.11828125 64.87785156 18.11828125 65.7734375 17.21875 C68.42158257 14.38411584 69.85641869 12.66569518 70.6875 8.8125 C69.78227773 5.109318 68.0560112 4.13920784 65 2 C65 1.34 65 0.68 65 0 C73.25 0 81.5 0 90 0 C87.79576703 2.20423297 86.05659062 3.71577293 83.5625 5.4375 C75.32316725 11.5333901 68.26241583 19.361628 61.640625 27.140625 C59.83852211 29.18300828 57.94061053 31.08901711 56 33 C54.66405486 34.3307164 53.33073678 35.66407516 52 37 C51.30777344 37.69480469 50.61554688 38.38960937 49.90234375 39.10546875 C49.25394531 39.79253906 48.60554688 40.47960937 47.9375 41.1875 C47.34839844 41.79980469 46.75929688 42.41210938 46.15234375 43.04296875 C44.79038881 44.96167712 44.79038881 44.96167712 45.05859375 47.3671875 C46.25744576 50.71999353 47.9873331 53.08374996 50.125 55.9375 C51.04411957 57.1856975 51.96061425 58.43583052 52.875 59.6875 C53.37644531 60.37328125 53.87789063 61.0590625 54.39453125 61.765625 C57.38825404 65.93207132 60.24733124 70.1904967 63.125 74.4375 C64.41113723 76.32443765 65.6976022 78.21115196 66.984375 80.09765625 C69.02799145 83.09626652 71.06605163 86.09816776 73.09179688 89.10888672 C75.17547244 92.20500501 77.27416682 95.29050661 79.375 98.375 C80.00422363 99.31915771 80.63344727 100.26331543 81.28173828 101.23608398 C86.50251728 108.85694645 92.59651146 114.53239125 100 120 C81.68256873 122.36330495 81.68256873 122.36330495 76.00732422 118.72119141 C72.59366801 115.30142301 70.28668902 111.2079459 68.046875 106.95703125 C66.59904352 104.25045076 64.87244996 101.77091142 63.125 99.25 C62.4959375 98.29351562 61.866875 97.33703125 61.21875 96.3515625 C56.25991999 88.82476695 51.11801029 81.41893837 46 74 C45.50048828 73.27232422 45.00097656 72.54464844 44.48632812 71.79492188 C43.1242821 69.81561212 41.75175995 67.84409293 40.375 65.875 C39.97361816 65.28928223 39.57223633 64.70356445 39.15869141 64.10009766 C37.18198661 61.30040351 36.34136072 60.11378691 33 59 C31.00522357 60.02313329 31.00522357 60.02313329 29.0625 61.625 C28.05896484 62.38683594 28.05896484 62.38683594 27.03515625 63.1640625 C23.22437521 66.60181123 21.16291408 68.67720315 20.51416016 73.94482422 C20.50134528 75.4814143 20.51087974 77.01830245 20.5390625 78.5546875 C20.53997894 79.37446075 20.54089539 80.19423401 20.5418396 81.03884888 C20.54786587 82.7686341 20.56358267 84.49840936 20.58837891 86.22802734 C20.62478481 88.85944613 20.62939861 91.48944981 20.62890625 94.12109375 C20.63874276 95.8073037 20.65040208 97.4935042 20.6640625 99.1796875 C20.66628815 99.95907684 20.66851379 100.73846619 20.67080688 101.54147339 C20.8111802 109.72777459 21.94957998 113.94957998 28 120 C18.76 120 9.52 120 0 120 C0.99 119.01 1.98 118.02 3 117 C3.66 117 4.32 117 5 117 C6.74930297 110.95977046 7.29257014 105.56896318 7.2746582 99.29858398 C7.27976913 98.36256348 7.28488007 97.42654297 7.29014587 96.4621582 C7.3039656 93.39007041 7.3030913 90.31820879 7.30078125 87.24609375 C7.30467144 85.09953224 7.30900677 82.9529715 7.31376648 80.80641174 C7.32121161 76.31696064 7.32094911 71.82758821 7.31567383 67.33813477 C7.30987156 61.59266855 7.32683693 55.84752391 7.3500185 50.10211086 C7.3647648 45.67281724 7.36562648 41.243601 7.36250877 36.81428719 C7.3630212 34.69604923 7.36824423 32.57780686 7.37832069 30.45959282 C7.39068945 27.49685721 7.38389134 24.53474745 7.37231445 21.57202148 C7.37995819 20.70273514 7.38760193 19.83344879 7.39547729 18.93782043 C7.32680378 10.96607214 5.05127455 6.31409318 0 0 Z " fill="#DEC58F" transform="translate(295,28)"></path><path d="M0 0 C3.5127108 1.49164617 6.87058325 2.53461508 10.55078125 3.5078125 C11.33453125 2.7034375 12.11828125 1.8990625 12.92578125 1.0703125 C15.55078125 -1.4921875 15.55078125 -1.4921875 17.55078125 -2.4921875 C17.70051631 7.22395427 17.24691394 16.82410955 16.55078125 26.5078125 C14.58619372 24.02189587 13.13725302 21.73885813 11.92578125 18.8203125 C7.59864681 10.03491833 -0.26650497 3.65617151 -9.44921875 0.5078125 C-19.84234792 -2.15446689 -29.14302211 -1.90706262 -38.69140625 3.234375 C-42.63499945 6.09128918 -44.93130701 9.95407727 -46.44921875 14.5078125 C-47.2275445 20.76777533 -46.78744931 25.48105065 -43.03125 30.64453125 C-36.54573839 38.2830227 -28.62992538 42.14106685 -19.74658203 46.39697266 C14.07720879 62.75172805 14.07720879 62.75172805 20.55078125 80.5078125 C20.85659469 83.26013343 21.02894831 85.70717288 20.98828125 88.4453125 C20.9821582 89.14825439 20.97603516 89.85119629 20.96972656 90.57543945 C20.80215923 96.13029655 19.81138495 100.05013402 16.55078125 104.5078125 C16.01453125 105.3740625 15.47828125 106.2403125 14.92578125 107.1328125 C6.6935442 115.36504955 -5.20863994 119.45601957 -16.69921875 119.8828125 C-26.02259564 119.84798046 -34.70053241 116.42404128 -43.44921875 113.5078125 C-45.27884311 113.36452866 -47.11423112 113.28740907 -48.94921875 113.2578125 C-49.90828125 113.23203125 -50.86734375 113.20625 -51.85546875 113.1796875 C-54.86473425 113.56037771 -55.5236682 114.27699175 -57.44921875 116.5078125 C-58.10921875 116.5078125 -58.76921875 116.5078125 -59.44921875 116.5078125 C-59.44921875 105.2878125 -59.44921875 94.0678125 -59.44921875 82.5078125 C-56.38591431 84.03946472 -55.6967815 87.01790367 -54.32421875 90.0078125 C-48.84041489 101.35898368 -41.52998794 108.90615721 -29.671875 113.609375 C-19.69290609 116.6901305 -9.29761456 115.59978558 0.17578125 111.2578125 C5.24780104 108.40532882 8.67214065 105.14373431 10.55078125 99.5078125 C11.05801259 93.29422857 11.34064254 87.71887177 7.55078125 82.5078125 C1.90935027 76.74054376 -4.40522084 73.08431233 -11.57421875 69.5078125 C-12.58959717 68.98799805 -13.60497559 68.46818359 -14.65112305 67.93261719 C-18.97996379 65.72358202 -23.3242432 63.55280543 -27.7109375 61.4609375 C-39.5148787 55.79920113 -50.49147275 48.62783589 -55.88671875 36.1953125 C-57.49947555 25.62279568 -56.91273243 16.35079758 -50.88671875 7.3203125 C-38.43093033 -8.2029462 -16.53745092 -7.21442731 0 0 Z " fill="#DCC48E" transform="translate(625.44921875,30.4921875)"></path><path d="M0 0 C4.35867376 1.93238453 4.35867376 1.93238453 8.6875 0.8125 C10.62095373 -0.70290968 12.28880407 -2.24935287 14 -4 C14.19219715 5.69527822 13.59581324 15.32867432 13 25 C10.92144687 22.35565161 9.30992121 19.75565413 7.8125 16.75 C3.06574959 8.16064211 -3.72504146 2.26195576 -13 -1 C-22.1206278 -3.37090947 -30.89386389 -3.95458199 -39.54296875 0.23046875 C-44.42465792 3.20089299 -48.36866379 6.37618308 -50 12 C-50.85498461 17.49163191 -50.80816959 22.34760223 -48 27.25 C-40.37334412 37.6155102 -29.02446861 42.55010075 -17.7890625 48.07421875 C-10.53903659 51.64048426 -3.48839219 55.12697516 3 60 C3.62132812 60.44601563 4.24265625 60.89203125 4.8828125 61.3515625 C10.67796755 65.84218049 15.77624237 72.63025962 17 80 C17.59896334 89.35304294 17.37119439 96.55422444 12.375 104.625 C3.60762994 113.39237006 -8.33033975 117.90224434 -20.625 118.4375 C-27.66689756 118.42949784 -33.52371961 116.41196938 -40.09423828 114.14990234 C-47.1938932 111.76707258 -53.73710276 110.57903425 -61 113 C-61 113.66 -61 114.32 -61 115 C-61.66 115 -62.32 115 -63 115 C-63 103.78 -63 92.56 -63 81 C-59.93669556 82.53165222 -59.24756275 85.51009117 -57.875 88.5 C-52.02865612 100.60160901 -43.76371882 108.37900451 -31 113 C-20.88292461 115.4502292 -10.02928226 113.31992458 -1.02734375 108.359375 C2.90538711 105.72239939 5.18019619 102.29227988 7 98 C7.71465433 91.85582901 7.73363375 86.13374641 4 81 C-1.37401886 75.57576436 -7.20611053 71.95096885 -14 68.5625 C-14.91628174 68.09223389 -15.83256348 67.62196777 -16.77661133 67.13745117 C-21.01686403 64.96953849 -25.27939253 62.8544362 -29.57421875 60.796875 C-41.06660029 55.27359105 -53.92708172 48.39300524 -58.875 35.875 C-61.60944609 26.26350386 -60.82274213 16.73823574 -56 8 C-43.18314125 -11.60225455 -18.24794781 -7.96799531 0 0 Z " fill="#DDC48F" transform="translate(264,32)"></path><path d="M0 0 C19.13316302 -1.60430288 19.13316302 -1.60430288 24.78515625 1.55859375 C26.89544993 4.23472441 28.396763 6.98921018 30 10 C32.02267699 13.08358736 34.14493487 16.09728286 36.25 19.125 C37.38086374 20.79382689 38.51107017 22.46309939 39.640625 24.1328125 C42.63860401 28.51963713 45.77702481 32.776828 49 37 C53.91292158 43.44694471 58.51845076 50.06502972 63.06323242 56.77539062 C68.30363416 64.49528237 73.74836616 72.05874645 79.24716187 79.59597778 C81.23298617 82.31954116 83.21566514 85.04537884 85.19799805 87.77148438 C85.91191208 88.75322632 86.62582611 89.73496826 87.3613739 90.74645996 C87.90212051 91.49012817 88.44286713 92.23379639 89 93 C89.06956765 82.67296321 89.12284568 72.34598234 89.15543652 62.01875877 C89.17107997 57.22319628 89.19229416 52.42779433 89.22631836 47.63232422 C89.25895885 43.00280813 89.27686295 38.3734463 89.28463173 33.74382401 C89.29016681 31.97920937 89.30097554 30.21460299 89.31719017 28.45005417 C89.33902695 25.97481922 89.34196434 23.50021841 89.34057617 21.02490234 C89.351362 20.29841492 89.36214783 19.57192749 89.3732605 18.82342529 C89.34479797 14.12074792 88.29294881 11.06800904 86 7 C86 6.34 86 5.68 86 5 C85.236875 4.731875 84.47375 4.46375 83.6875 4.1875 C81 3 81 3 78 0 C86.58 0 95.16 0 104 0 C101.96375332 2.03624668 100.10887977 3.74881787 97.875 5.5 C94.80308932 7.74343251 94.80308932 7.74343251 94 11 C93.89977614 12.49718464 93.85386839 13.99833829 93.84178162 15.49882507 C93.8319928 16.42009186 93.82220398 17.34135864 93.81211853 18.2905426 C93.80636307 19.29898727 93.8006076 20.30743195 93.79467773 21.34643555 C93.78477814 22.41001282 93.77487854 23.47359009 93.76467896 24.56939697 C93.73304175 28.09181477 93.70829765 31.61424606 93.68359375 35.13671875 C93.66302615 37.5762416 93.64202973 40.01576088 93.62062073 42.45527649 C93.56538008 48.88157251 93.51597954 55.3079008 93.46777344 61.73425293 C93.417573 68.28966143 93.36187932 74.84502298 93.30664062 81.40039062 C93.19903466 94.26688671 93.0974086 107.13342288 93 120 C88.81022392 118.60340797 87.44784505 115.60486994 85.125 112.0625 C84.13869195 110.59242421 83.15033059 109.12372442 82.16015625 107.65625 C81.64340332 106.88925781 81.12665039 106.12226563 80.59423828 105.33203125 C77.98998154 101.522558 75.27787692 97.7931953 72.5625 94.0625 C68.33208337 88.23771466 64.13955682 82.38972453 60 76.5 C55.87622302 70.6350274 51.706744 64.80574395 47.5 59 C41.77858862 51.10127137 36.13790556 43.14848032 30.52783203 35.17041016 C28.90538211 32.86558756 27.27931812 30.56334954 25.65234375 28.26171875 C25.10392822 27.48578369 24.5555127 26.70984863 23.99047852 25.91040039 C22.93778283 24.42116292 21.88489519 22.93206111 20.83178711 21.44311523 C20.35878174 20.77352783 19.88577637 20.10394043 19.3984375 19.4140625 C18.98255371 18.8257666 18.56666992 18.2374707 18.13818359 17.63134766 C17.07115334 16.1019834 16.03440932 14.55161398 15 13 C14.93046995 25.28280092 14.87717333 37.56555496 14.84456348 49.84851265 C14.8289119 55.55207397 14.80768261 61.25550058 14.77368164 66.95898438 C14.74107052 72.46381834 14.72314317 77.96852278 14.71536827 83.47344589 C14.70982795 85.572987 14.69900906 87.67252107 14.68280983 89.77200699 C14.66101253 92.71420833 14.65803407 95.65587535 14.65942383 98.59814453 C14.648638 99.46489304 14.63785217 100.33164154 14.6267395 101.22465515 C14.65231085 106.2322362 15.22624534 109.65708487 18 114 C19.97614025 115.69067385 19.97614025 115.69067385 22.1875 116.8125 C23.4676292 117.52522058 24.74152832 118.24969978 26 119 C26 119.33 26 119.66 26 120 C17.42 120 8.84 120 0 120 C1.32 119.01 2.64 118.02 4 117 C8.78321227 112.90010377 10.62223337 109.28639984 11.18091583 102.94720459 C11.25874962 100.64725896 11.27035651 98.35591833 11.25878906 96.0546875 C11.2622937 95.18708801 11.26579834 94.31948853 11.26940918 93.42559814 C11.27816726 90.57531588 11.27239832 87.72528452 11.265625 84.875 C11.26697335 82.88395134 11.2689153 80.892903 11.27142334 78.90185547 C11.27436658 74.73597061 11.27010268 70.57017172 11.26074219 66.40429688 C11.24934818 61.07474931 11.25591193 55.74540322 11.26788712 50.41586304 C11.2751273 46.30654391 11.27280786 42.19727225 11.26763153 38.08795166 C11.26630101 36.12322974 11.26792175 34.15850345 11.27259064 32.19378662 C11.27769136 29.44417975 11.26989591 26.69489546 11.25878906 23.9453125 C11.26283752 23.13991028 11.26688599 22.33450806 11.27105713 21.50469971 C11.23211729 16.27939115 11.10517852 10.50979501 7.59765625 6.328125 C7.09105469 5.97234375 6.58445312 5.6165625 6.0625 5.25 C3.77506569 3.56943602 1.94367424 2.01910041 0 0 Z " fill="#DEC58F" transform="translate(450,28)"></path><path d="M0 0 C15.01230239 14.40303687 22.31988837 32.90475144 23.09439659 53.51154327 C23.13547331 56.13088008 23.14657523 58.74850815 23.14526367 61.36816406 C23.14862228 62.351754 23.1519809 63.33534393 23.15544128 64.34873962 C23.16486926 67.57104792 23.16689028 70.7933038 23.16796875 74.015625 C23.17118703 76.27707947 23.17455152 78.53853374 23.17805481 80.79998779 C23.18402573 85.53056317 23.18589681 90.26112034 23.18530273 94.99169922 C23.18520124 101.02107656 23.19884981 107.05033581 23.21607494 113.07968521 C23.22725253 117.74858119 23.22922018 122.41744914 23.22869301 127.08635712 C23.22986459 129.30765947 23.23423963 131.52896275 23.24202538 133.75025177 C23.32352135 159.4019663 20.84131139 182.1282093 2.31640625 201.6875 C-12.93710583 216.91528947 -30.56586969 225.02280244 -52.3125 225.3125 C-73.14483778 225.22032151 -91.29121439 216.98637816 -106.359375 202.80078125 C-120.86835725 187.41181634 -127.12185226 168.80974468 -127.17700195 148.01025391 C-127.18357315 146.92463165 -127.19014435 145.8390094 -127.19691467 144.7204895 C-127.21656998 141.13917967 -127.22829572 137.55791172 -127.23828125 133.9765625 C-127.24235678 132.74648846 -127.2464323 131.51641441 -127.25063133 130.2490654 C-127.26932031 124.40299191 -127.28388976 118.55693464 -127.2922433 112.71083701 C-127.30101484 106.67510815 -127.32022625 100.63963241 -127.35668945 94.60400391 C-127.39534859 88.0989944 -127.41395314 81.59421244 -127.41844749 75.08909225 C-127.42328324 72.62463502 -127.4348098 70.16018055 -127.45348549 67.69578934 C-127.6447673 40.77210017 -123.34285887 19.96322118 -104.25 -0.125 C-93.73610028 -10.35388436 -79.61975761 -17.89216064 -65 -20 C-63.90751953 -20.18175781 -63.90751953 -20.18175781 -62.79296875 -20.3671875 C-39.68991435 -23.50889639 -16.99270652 -15.73872667 0 0 Z M-109.3125 10.8125 C-120.2487584 25.18912303 -124.1399964 41.48123217 -124.16113281 59.27124023 C-124.16609772 60.28044022 -124.17106262 61.2896402 -124.17617798 62.329422 C-124.19073572 65.65581964 -124.19759271 68.98216952 -124.203125 72.30859375 C-124.20595238 73.45165545 -124.20877975 74.59471714 -124.21169281 75.77241707 C-124.22666356 81.82736567 -124.23590501 87.88229059 -124.24023438 93.93725586 C-124.24570052 100.15377781 -124.26969548 106.3700787 -124.29820633 112.58653164 C-124.31695216 117.39877425 -124.32204474 122.21096502 -124.32357025 127.02324104 C-124.32657291 129.31267562 -124.33451938 131.60210982 -124.34775543 133.8915081 C-124.48414101 159.30581465 -121.27313213 181.46723731 -103.2109375 200.87890625 C-88.70034581 214.79984492 -70.07087317 221.99502496 -50.08203125 222.0703125 C-29.56275407 221.3773538 -11.75925117 211.38612302 2.125 196.76171875 C6.26242859 191.95357419 9.40756475 186.79677567 12.3125 181.1875 C12.63814941 180.57253662 12.96379883 179.95757324 13.29931641 179.32397461 C20.34754232 165.01677239 19.458321 149.67309005 19.43359375 134.13671875 C19.43816298 131.61529908 19.44347075 129.09388065 19.44947815 126.57246399 C19.45838092 121.30323332 19.45625702 116.03411525 19.44604492 110.76489258 C19.4345808 104.71687965 19.4486275 98.66931108 19.4754414 92.62135667 C19.50046776 86.75178397 19.50274258 80.88238105 19.49632454 75.01276588 C19.49617234 72.53912429 19.50213136 70.06547372 19.51461601 67.59186363 C19.62161547 42.91733108 16.26740359 21.90831379 -1.51757812 3.45019531 C-15.40112472 -10.13153505 -33.29283626 -17.28696854 -52.5625 -17.5 C-75.83450956 -17.19643174 -94.47151651 -6.46887466 -109.3125 10.8125 Z " fill="#DBC38D" transform="translate(127,21)"></path><path d="M0 0 C3.05862415 1.52931208 3.22262281 3.81982931 4.37109375 6.99609375 C4.60499817 7.63528244 4.83890259 8.27447113 5.07989502 8.93302917 C5.59640047 10.34604948 6.10975775 11.76022335 6.62045288 13.175354 C8.04855383 17.1293155 9.50258584 21.07375853 10.953125 25.01953125 C11.26863815 25.8795575 11.58415131 26.73958374 11.90922546 27.62567139 C20.96511873 52.26787269 30.29536154 76.83078951 39.9375 101.25 C40.30770264 102.19955566 40.67790527 103.14911133 41.05932617 104.12744141 C43.94839198 111.3483948 46.78265397 116.02612317 53 121 C42.77 121 32.54 121 22 121 C24.97 117.535 24.97 117.535 28 114 C28.25545758 106.55720889 25.44368336 100.19627763 22.6875 93.375 C21.7758877 91.06256069 20.86443635 88.75005793 19.953125 86.4375 C19.47166016 85.22707031 18.99019531 84.01664062 18.49414062 82.76953125 C16.19209006 76.97552141 13.94748889 71.15917648 11.69927979 65.34411621 C10.94003477 63.3815521 10.17892541 61.41971931 9.41748047 59.45800781 C5.75673466 50.01673959 2.17838728 40.54633053 -1.32250977 31.04443359 C-1.66338623 30.12484863 -2.0042627 29.20526367 -2.35546875 28.2578125 C-2.65090576 27.4548877 -2.94634277 26.65196289 -3.25073242 25.82470703 C-3.85706342 24.01443115 -3.85706342 24.01443115 -5 23 C-9.90451449 35.64956774 -14.79515293 48.30442284 -19.67285156 60.96435547 C-21.16619833 64.83970258 -22.66282537 68.71375019 -24.16308594 72.58642578 C-25.81233731 76.84473239 -27.45269138 81.10635822 -29.08612061 85.37075806 C-29.69106061 86.94569085 -30.29913118 88.51942506 -30.91046143 90.09188843 C-31.76129817 92.28206392 -32.60068758 94.47630988 -33.4375 96.671875 C-33.91058594 97.9000293 -34.38367188 99.12818359 -34.87109375 100.39355469 C-36.38105515 105.21733275 -37.77934822 109.93701943 -35.9375 114.8125 C-33.58586745 117.46756901 -31.24489233 118.62993435 -28 120 C-28 120.33 -28 120.66 -28 121 C-36.58 121 -45.16 121 -54 121 C-52.35 119.68 -50.7 118.36 -49 117 C-44.24338558 112.3902876 -41.61882981 107.61999806 -39.36328125 101.44921875 C-39.04588989 100.61789429 -38.72849854 99.78656982 -38.40148926 98.93005371 C-37.35813194 96.18750365 -36.33542198 93.43773004 -35.3125 90.6875 C-34.57974653 88.75053632 -33.8455866 86.81410418 -33.11010742 84.87817383 C-31.54733344 80.75763066 -29.99307275 76.63401821 -28.4453125 72.5078125 C-25.51670914 64.70410561 -22.55390914 56.91349553 -19.59037781 49.1230011 C-19.16956436 48.01675888 -18.74875092 46.91051666 -18.31518555 45.77075195 C-17.89876801 44.67606598 -17.48235046 43.58138 -17.05331421 42.45352173 C-15.8398041 39.25936876 -14.62986626 36.06388686 -13.42114258 32.86791992 C-1.58147498 1.58147498 -1.58147498 1.58147498 0 0 Z " fill="#DDC48F" transform="translate(714,27)"></path><path d="M0 0 C187.11 0 374.22 0 567 0 C567 0.99 567 1.98 567 3 C379.89 3 192.78 3 0 3 C0 2.01 0 1.02 0 0 Z " fill="#DFC690" transform="translate(202,169)"></path><path d="M0 0 C9.57 0 19.14 0 29 0 C27.02 2.31 25.04 4.62 23 7 C22.09290216 9.72129351 21.87102743 11.3124578 21.85955811 14.11004639 C21.85384796 14.94546967 21.84813782 15.78089294 21.84225464 16.64163208 C21.84113678 17.55492279 21.84001892 18.4682135 21.83886719 19.40917969 C21.83390228 20.37373077 21.82893738 21.33828186 21.82382202 22.33206177 C21.80919636 25.5286734 21.80239724 28.72523538 21.796875 31.921875 C21.79112331 34.14284263 21.78536558 36.36381024 21.77960205 38.58477783 C21.76909052 43.24532299 21.76324903 47.9058509 21.75976562 52.56640625 C21.75428458 58.53282892 21.73026535 64.49902297 21.70179367 70.46537399 C21.68315095 75.05508078 21.67796078 79.64473273 21.67642975 84.23447418 C21.67340574 86.43365985 21.66538572 88.63284462 21.65224457 90.8319931 C21.63515237 93.91258518 21.6370724 96.99262167 21.64355469 100.07324219 C21.6343399 100.97843597 21.62512512 101.88362976 21.6156311 102.81625366 C21.65170554 108.30080777 22.28847864 112.18646767 25 117 C26.32 117.99 27.64 118.98 29 120 C19.43 120 9.86 120 0 120 C1.65 118.68 3.3 117.36 5 116 C6.86965018 113.15239225 7.25060983 110.97291124 7.25396729 107.59765625 C7.25960693 106.72286621 7.26524658 105.84807617 7.27105713 104.94677734 C7.26700867 103.99496582 7.26296021 103.0431543 7.25878906 102.0625 C7.2622937 101.05396973 7.26579834 100.04543945 7.26940918 99.00634766 C7.27821554 95.67082853 7.27238111 92.3355213 7.265625 89 C7.26697196 86.68359334 7.26891276 84.36718695 7.27142334 82.05078125 C7.27437312 77.19528513 7.27008158 72.33986257 7.26074219 67.484375 C7.24934781 61.25653223 7.25590805 55.02886184 7.26788712 48.80102539 C7.2751096 44.01756488 7.27281598 39.23414533 7.26763153 34.45068359 C7.26629611 32.15413391 7.26793898 29.85758052 7.27259064 27.56103516 C7.27766216 24.35308971 7.26993659 21.14542454 7.25878906 17.9375 C7.26283752 16.98568848 7.26688599 16.03387695 7.27105713 15.05322266 C7.26259766 13.7410376 7.26259766 13.7410376 7.25396729 12.40234375 C7.25321323 11.64429443 7.25245918 10.88624512 7.25168228 10.10522461 C6.9588932 7.65615756 6.3082734 6.08551101 5 4 C3.36504293 2.94895617 1.70116376 1.94011682 0 1 C0 0.67 0 0.34 0 0 Z " fill="#DFC590" transform="translate(400,28)"></path><path d="M0 0 C1.45147903 2.90295805 1.37239025 4.77261779 1 8 C-0.47368516 10.27751344 -2.11435238 12.02007 -4 14 C-2.35 15.65 -0.7 17.3 1 19 C2.32 16.69 3.64 14.38 5 12 C6.32 12 7.64 12 9 12 C8.44894091 15.9492568 7.61064629 19.34920174 6 23 C6.99 23.66 7.98 24.32 9 25 C9 26.32 9 27.64 9 29 C7.046875 28.4140625 5.09375 27.828125 3.140625 27.2421875 C0.45652286 26.93851171 -0.63770213 27.77544327 -3 29 C-7.07471862 29.21185712 -10.8120599 28.93595281 -14.0625 26.375 C-15.39206285 23.00677412 -15.44117332 20.59241134 -15 17 C-14.319375 16.175 -13.63875 15.35 -12.9375 14.5 C-10.57450087 12.05841486 -10.57450087 12.05841486 -11.4375 8.5 C-11.623125 7.345 -11.80875 6.19 -12 5 C-9.09501531 -1.36329979 -6.59782036 -1.31956407 0 0 Z M-6 3 C-6.66 4.32 -7.32 5.64 -8 7 C-7.01 8.485 -7.01 8.485 -6 10 C-4.4166747 8.7511573 -4.4166747 8.7511573 -3 7 C-3 5.68 -3 4.36 -3 3 C-3.99 3 -4.98 3 -6 3 Z M-9 16 C-11.33391203 18.78114056 -11.33391203 18.78114056 -10.625 21.6875 C-10.41875 22.450625 -10.2125 23.21375 -10 24 C-7.09926819 24.67801034 -7.09926819 24.67801034 -4 25 C-3.34 24.34 -2.68 23.68 -2 23 C-2.97566112 21.83040013 -3.955625 20.66438823 -4.9375 19.5 C-5.48277344 18.8503125 -6.02804687 18.200625 -6.58984375 17.53125 C-7.05519531 17.0259375 -7.52054687 16.520625 -8 16 C-8.33 16 -8.66 16 -9 16 Z " fill="#F4F4F4" transform="translate(310,192)"></path><path d="M0 0 C1.65 0 3.3 0 5 0 C6.4855957 1.56054688 6.4855957 1.56054688 7.67578125 3.71875 C8.11083984 4.48574219 8.54589844 5.25273437 8.99414062 6.04296875 C9.42919922 6.85378906 9.86425781 7.66460937 10.3125 8.5 C10.76689453 9.31082031 11.22128906 10.12164062 11.68945312 10.95703125 C12.80987626 12.96199897 13.90717162 14.979859 15 17 C15.33 11.39 15.66 5.78 16 0 C17.65 0 19.3 0 21 0 C21 9.24 21 18.48 21 28 C19.02 28 17.04 28 15 28 C11.7 22.06 8.4 16.12 5 10 C4.67 15.94 4.34 21.88 4 28 C2.68 28 1.36 28 0 28 C0 18.76 0 9.52 0 0 Z " fill="#F8F8F8" transform="translate(708,192)"></path><path d="M0 0 C1.98 0 3.96 0 6 0 C9.3 5.94 12.6 11.88 16 18 C16.33 12.06 16.66 6.12 17 0 C18.32 0 19.64 0 21 0 C21 9.24 21 18.48 21 28 C19.35 28 17.7 28 16 28 C14.5144043 26.43945312 14.5144043 26.43945312 13.32421875 24.28125 C12.88916016 23.51425781 12.45410156 22.74726563 12.00585938 21.95703125 C11.57080078 21.14621094 11.13574219 20.33539063 10.6875 19.5 C10.23310547 18.68917969 9.77871094 17.87835938 9.31054688 17.04296875 C8.19012374 15.03800103 7.09282838 13.020141 6 11 C5.67 16.61 5.34 22.22 5 28 C3.35 28 1.7 28 0 28 C0 18.76 0 9.52 0 0 Z " fill="#F1F1F1" transform="translate(261,192)"></path><path d="M0 0 C2.3925 -0.0825 4.785 -0.165 7.25 -0.25 C7.99668945 -0.28641602 8.74337891 -0.32283203 9.51269531 -0.36035156 C12.87419799 -0.41640674 14.70251494 -0.21411345 17.453125 1.765625 C19.5282779 4.76306808 19.56483718 6.55196958 19.40625 10.09375 C18.7979461 12.94809908 17.28030304 14.28977272 15 16 C16.58962659 20.03520597 18.28232318 24.01811282 20 28 C17.70703125 28.2734375 17.70703125 28.2734375 15 28 C13.19921875 26.1015625 13.19921875 26.1015625 11.6875 23.625 C11.17574219 22.81289062 10.66398437 22.00078125 10.13671875 21.1640625 C9 19 9 19 9 17 C7.35 17 5.7 17 4 17 C4 20.63 4 24.26 4 28 C2.68 28 1.36 28 0 28 C0 18.76 0 9.52 0 0 Z M4 3 C4 6.3 4 9.6 4 13 C9.13725982 13.48489837 9.13725982 13.48489837 13.4375 11 C13.953125 10.34 14.46875 9.68 15 9 C14.34 7.35 13.68 5.7 13 4 C10.03 3.67 7.06 3.34 4 3 Z " fill="#F8F8F8" transform="translate(393,192)"></path><path d="M0 0 C1.32 0 2.64 0 4 0 C4 3.63 4 7.26 4 11 C7.96 11 11.92 11 16 11 C16 7.37 16 3.74 16 0 C17.65 0 19.3 0 21 0 C21 9.24 21 18.48 21 28 C19.35 28 17.7 28 16 28 C16 23.71 16 19.42 16 15 C12.04 15 8.08 15 4 15 C4 19.29 4 23.58 4 28 C2.68 28 1.36 28 0 28 C0 18.76 0 9.52 0 0 Z " fill="#FCFCFC" transform="translate(515,192)"></path><path d="M0 0 C1.65 0 3.3 0 5 0 C5 3.63 5 7.26 5 11 C8.96 11 12.92 11 17 11 C17 7.37 17 3.74 17 0 C18.32 0 19.64 0 21 0 C21 9.24 21 18.48 21 28 C19.68 28 18.36 28 17 28 C17 23.71 17 19.42 17 15 C13.04 15 9.08 15 5 15 C5 19.29 5 23.58 5 28 C3.35 28 1.7 28 0 28 C0 18.76 0 9.52 0 0 Z " fill="#FDFDFD" transform="translate(331,192)"></path><path d="M0 0 C1.32 0 2.64 0 4 0 C4.33 3.63 4.66 7.26 5 11 C6.31514604 9.54405245 7.62703717 8.08516421 8.9375 6.625 C9.66839844 5.81289062 10.39929688 5.00078125 11.15234375 4.1640625 C13.02989471 2.14075833 13.02989471 2.14075833 14 0 C15.98 0 17.96 0 20 0 C18.40342291 2.79400991 16.91318793 5.09150462 14.6875 7.4375 C12.68059377 9.87124539 12.68059377 9.87124539 13.375 12.6875 C15.27417149 16.55888804 17.45149833 20.18657631 19.7578125 23.828125 C21 26 21 26 21 28 C18.73828125 28.375 18.73828125 28.375 16 28 C13.98046875 25.375 13.98046875 25.375 12.1875 22 C11.58292969 20.88625 10.97835937 19.7725 10.35546875 18.625 C9.90816406 17.75875 9.46085938 16.8925 9 16 C5.82754044 17.94757827 5.82754044 17.94757827 4.390625 21.26171875 C4.32101563 22.46248047 4.32101563 22.46248047 4.25 23.6875 C4.19328125 24.49574219 4.1365625 25.30398437 4.078125 26.13671875 C4.05234375 26.75160156 4.0265625 27.36648437 4 28 C2.68 28 1.36 28 0 28 C0 18.76 0 9.52 0 0 Z " fill="#F9F9F9" transform="translate(226,192)"></path><path d="M0 0 C1.16015625 0.11794922 1.16015625 0.11794922 2.34375 0.23828125 C4.5 0.6875 4.5 0.6875 7.5 2.6875 C6.84 4.0075 6.18 5.3275 5.5 6.6875 C4.79875 6.3575 4.0975 6.0275 3.375 5.6875 C0.23996884 4.59705438 -2.20563182 4.53427357 -5.5 4.6875 C-5.38369761 7.10939429 -5.38369761 7.10939429 -4.5 9.6875 C-2.28720779 11.30067701 -2.28720779 11.30067701 0.4375 12.375 C5.36340206 14.55090206 5.36340206 14.55090206 7.5 16.6875 C7.80078125 18.74609375 7.80078125 18.74609375 7.8125 21.125 C7.82925781 21.90746094 7.84601563 22.68992188 7.86328125 23.49609375 C7.41392045 26.20675408 6.65823513 27.03470635 4.5 28.6875 C0.37576968 30.06224344 -3.4216303 30.61166827 -7.51171875 28.79296875 C-9.21039398 27.81786715 -10.86007781 26.75846959 -12.5 25.6875 C-11.84 24.3675 -11.18 23.0475 -10.5 21.6875 C-8.9221875 22.4609375 -8.9221875 22.4609375 -7.3125 23.25 C-4.01476233 24.68438183 -1.9935632 24.85202107 1.5 23.6875 C1.83 22.3675 2.16 21.0475 2.5 19.6875 C1.72914063 19.27757812 0.95828125 18.86765625 0.1640625 18.4453125 C-0.83882813 17.90648437 -1.84171875 17.36765625 -2.875 16.8125 C-3.87273437 16.27882812 -4.87046875 15.74515625 -5.8984375 15.1953125 C-8.5 13.6875 -8.5 13.6875 -10.5 11.6875 C-11.06833559 4.52647158 -11.06833559 4.52647158 -9.1875 1.75 C-6.00678327 -0.2526735 -3.61853263 -0.40406948 0 0 Z " fill="#F1F1F1" transform="translate(480.5,191.3125)"></path><path d="M0 0 C1.16015625 0.11794922 1.16015625 0.11794922 2.34375 0.23828125 C4.5 0.6875 4.5 0.6875 7.5 2.6875 C6.84 4.0075 6.18 5.3275 5.5 6.6875 C4.778125 6.336875 4.05625 5.98625 3.3125 5.625 C0.1877295 4.58340983 -1.38161996 4.79653428 -4.5 5.6875 C-4.5 7.0075 -4.5 8.3275 -4.5 9.6875 C-3.81292969 9.99042969 -3.12585938 10.29335937 -2.41796875 10.60546875 C4.82176019 13.9715802 4.82176019 13.9715802 7.75 17.0625 C8.84782212 20.90487742 8.10515746 23.07589572 6.5 26.6875 C3.68502266 29.18076564 1.85130435 29.64196055 -1.875 30.125 C-6.38193095 29.58106006 -8.72645585 28.15185536 -12.5 25.6875 C-11.51 24.3675 -10.52 23.0475 -9.5 21.6875 C-8.63375 22.1825 -7.7675 22.6775 -6.875 23.1875 C-3.39250377 24.7352761 -1.25240542 24.95552896 2.5 24.6875 C2.5 23.0375 2.5 21.3875 2.5 19.6875 C1.72914063 19.27757812 0.95828125 18.86765625 0.1640625 18.4453125 C-0.83882812 17.90648437 -1.84171875 17.36765625 -2.875 16.8125 C-3.87273437 16.27882812 -4.87046875 15.74515625 -5.8984375 15.1953125 C-8.5 13.6875 -8.5 13.6875 -10.5 11.6875 C-10.83946509 8.02127703 -10.99005781 5.57427128 -9.1875 2.3125 C-6.29415591 -0.47368319 -3.77663154 -0.42172386 0 0 Z " fill="#F2F2F2" transform="translate(213.5,191.3125)"></path><path d="M0 0 C5.61 0 11.22 0 17 0 C17 1.32 17 2.64 17 4 C13.04 4 9.08 4 5 4 C5 6.31 5 8.62 5 11 C8.3 11 11.6 11 15 11 C15 12.32 15 13.64 15 15 C11.7 15 8.4 15 5 15 C5 17.97 5 20.94 5 24 C8.96 24 12.92 24 17 24 C17.33 25.32 17.66 26.64 18 28 C12.06 28 6.12 28 0 28 C0 18.76 0 9.52 0 0 Z " fill="#FCFCFC" transform="translate(542,192)"></path><path d="M0 0 C5.61 0 11.22 0 17 0 C17 1.32 17 2.64 17 4 C13.04 4 9.08 4 5 4 C5 6.31 5 8.62 5 11 C8.3 11 11.6 11 15 11 C15 12.32 15 13.64 15 15 C11.7 15 8.4 15 5 15 C5 17.97 5 20.94 5 24 C8.96 24 12.92 24 17 24 C17.33 25.32 17.66 26.64 18 28 C12.06 28 6.12 28 0 28 C0 18.76 0 9.52 0 0 Z " fill="#FBFBFB" transform="translate(448,192)"></path><path d="M0 0 C1.2065625 0.0309375 1.2065625 0.0309375 2.4375 0.0625 C4.9227736 5.96328929 7.14049551 11.93537278 9.1875 18 C9.41010498 18.6504126 9.63270996 19.3008252 9.86206055 19.97094727 C10.80468268 22.80177207 11.4375 25.05629164 11.4375 28.0625 C9.7875 28.0625 8.1375 28.0625 6.4375 28.0625 C5.7775 25.4225 5.1175 22.7825 4.4375 20.0625 C1.4675 20.3925 -1.5025 20.7225 -4.5625 21.0625 C-5.5525 23.3725 -6.5425 25.6825 -7.5625 28.0625 C-8.8825 28.0625 -10.2025 28.0625 -11.5625 28.0625 C-10.2518114 21.730671 -8.58173958 15.68109223 -6.5 9.5625 C-6.0968457 8.34820312 -6.0968457 8.34820312 -5.68554688 7.109375 C-3.32113661 0.08100333 -3.32113661 0.08100333 0 0 Z M-0.5625 5.0625 C-2.0475 10.5075 -2.0475 10.5075 -3.5625 16.0625 C-1.2525 16.0625 1.0575 16.0625 3.4375 16.0625 C2.4475 12.4325 1.4575 8.8025 0.4375 5.0625 C0.1075 5.0625 -0.2225 5.0625 -0.5625 5.0625 Z " fill="#F9F9F9" transform="translate(433.5625,191.9375)"></path><path d="M0 0 C1.98 0 3.96 0 6 0 C7.50499009 4.28993333 9.00314637 8.58222158 10.5 12.875 C10.92925781 14.09832031 11.35851562 15.32164062 11.80078125 16.58203125 C12.20683594 17.74863281 12.61289062 18.91523438 13.03125 20.1171875 C13.40830078 21.19597168 13.78535156 22.27475586 14.17382812 23.38623047 C15 26 15 26 15 28 C13.35 28 11.7 28 10 28 C8.74335022 25.09399739 8 23.20395416 8 20 C4.7 20 1.4 20 -2 20 C-2.144375 20.94875 -2.28875 21.8975 -2.4375 22.875 C-3 26 -3 26 -4 28 C-5.65 28 -7.3 28 -9 28 C-6.29895639 18.57004072 -3.12847689 9.29430999 0 0 Z M2 7 C1.34 9.97 0.68 12.94 0 16 C1.98 16 3.96 16 6 16 C5.34 13.03 4.68 10.06 4 7 C3.34 7 2.68 7 2 7 Z " fill="#F7F7F7" transform="translate(364,192)"></path><path d="M0 0 C0.78503906 0.05542969 1.57007813 0.11085937 2.37890625 0.16796875 C4.4375 0.8125 4.4375 0.8125 5.77734375 2.73828125 C6.4375 4.8125 6.4375 4.8125 5.4375 6.8125 C4.81101562 6.65652344 4.18453125 6.50054687 3.5390625 6.33984375 C2.72179687 6.14519531 1.90453125 5.95054687 1.0625 5.75 C0.25039063 5.55277344 -0.56171875 5.35554687 -1.3984375 5.15234375 C-3.60411284 4.59140681 -3.60411284 4.59140681 -5.5625 5.8125 C-5.48074982 7.7258966 -5.48074982 7.7258966 -4.5625 9.8125 C-2.06667001 11.53807593 -2.06667001 11.53807593 0.9375 12.9375 C6.34487564 15.62725129 6.34487564 15.62725129 7.4375 17.8125 C8.0176105 24.07769337 8.0176105 24.07769337 5.5625 27.1875 C1.75068506 30.10241731 -0.76587975 30.13227468 -5.5625 29.8125 C-9 28.3125 -9 28.3125 -11.5625 26.8125 C-11.5625 25.4925 -11.5625 24.1725 -11.5625 22.8125 C-8.5625 22.8125 -8.5625 22.8125 -6.75 23.875 C-3.75586613 25.15820023 -1.67677701 24.52029023 1.4375 23.8125 C1.7675 22.1625 2.0975 20.5125 2.4375 18.8125 C1.57125 18.565 0.705 18.3175 -0.1875 18.0625 C-4.0510269 16.63156411 -7.61599564 14.75900436 -10.5625 11.8125 C-11.03374825 4.50815217 -11.03374825 4.50815217 -9.25 1.875 C-6.09545905 -0.11119245 -3.60752456 -0.31498979 0 0 Z " fill="#F7F7F7" transform="translate(631.5625,191.1875)"></path><path d="M0 0 C0.78503906 0.07863281 1.57007813 0.15726563 2.37890625 0.23828125 C4.4375 0.6875 4.4375 0.6875 6.4375 2.6875 C6.0625 4.8125 6.0625 4.8125 5.4375 6.6875 C4.73625 6.336875 4.035 5.98625 3.3125 5.625 C-0.21725955 4.47399145 -2.05309642 4.46683788 -5.5625 5.6875 C-8.32382234 9.25049657 -8.75912245 12.01449889 -8.375 16.375 C-7.9503634 19.65319454 -7.47581161 20.81753258 -5.5625 23.6875 C-0.94517751 25.05170892 2.02398124 24.47392426 6.4375 22.6875 C6.4375 24.0075 6.4375 25.3275 6.4375 26.6875 C4.163648 28.81465187 2.39607294 29.62683083 -0.72265625 29.82421875 C-5.06525425 29.57047763 -7.10997277 29.05517838 -10.5625 26.25 C-14.87715726 20.72184538 -14.37834654 14.47111293 -13.5625 7.6875 C-10.5758349 1.77087862 -6.62882356 -0.73168234 0 0 Z " fill="#F7F7F7" transform="translate(664.5625,191.3125)"></path><path d="M0 0 C0.78503906 0.07863281 1.57007813 0.15726563 2.37890625 0.23828125 C4.4375 0.6875 4.4375 0.6875 6.4375 2.6875 C6.0625 4.8125 6.0625 4.8125 5.4375 6.6875 C4.73625 6.336875 4.035 5.98625 3.3125 5.625 C-0.21725955 4.47399145 -2.05309642 4.46683788 -5.5625 5.6875 C-8.32382234 9.25049657 -8.75912245 12.01449889 -8.375 16.375 C-7.9503634 19.65319454 -7.47581161 20.81753258 -5.5625 23.6875 C-0.94517751 25.05170892 2.02398124 24.47392426 6.4375 22.6875 C6.4375 24.0075 6.4375 25.3275 6.4375 26.6875 C4.163648 28.81465187 2.39607294 29.62683083 -0.72265625 29.82421875 C-5.06525425 29.57047763 -7.10997277 29.05517838 -10.5625 26.25 C-14.87715726 20.72184538 -14.37834654 14.47111293 -13.5625 7.6875 C-10.5758349 1.77087862 -6.62882356 -0.73168234 0 0 Z " fill="#F7F7F7" transform="translate(610.5625,191.3125)"></path><path d="M0 0 C0.78503906 0.07863281 1.57007813 0.15726563 2.37890625 0.23828125 C4.4375 0.6875 4.4375 0.6875 6.4375 2.6875 C6.0625 4.8125 6.0625 4.8125 5.4375 6.6875 C4.73625 6.336875 4.035 5.98625 3.3125 5.625 C-0.21725955 4.47399145 -2.05309642 4.46683788 -5.5625 5.6875 C-8.87281288 9.95887146 -8.76233033 13.52535211 -8.1796875 18.63671875 C-7.44394818 21.08142219 -6.53576686 22.09725054 -4.5625 23.6875 C-0.35189746 25.16690089 2.36358088 24.29811919 6.4375 22.6875 C6.4375 24.0075 6.4375 25.3275 6.4375 26.6875 C4.163648 28.81465187 2.39607294 29.62683083 -0.72265625 29.82421875 C-5.02291958 29.57295128 -7.11419131 29.04241105 -10.5625 26.3125 C-13.49702914 22.46093051 -13.74182279 19.53609354 -13.8125 14.8125 C-13.85117187 13.26949219 -13.85117187 13.26949219 -13.890625 11.6953125 C-13.38646184 7.07381683 -11.11083229 3.64444357 -7.5625 0.6875 C-4.5419408 -0.31935307 -3.09173734 -0.34126261 0 0 Z " fill="#F9F9F9" transform="translate(758.5625,191.3125)"></path><path d="M0 0 C6.93 0 13.86 0 21 0 C21 1.32 21 2.64 21 4 C18.36 4 15.72 4 13 4 C13 11.92 13 19.84 13 28 C11.35 28 9.7 28 8 28 C8 20.08 8 12.16 8 4 C5.36 4 2.72 4 0 4 C0 2.68 0 1.36 0 0 Z " fill="#FCFCFC" transform="translate(562,192)"></path><path d="M0 0 C1.65 0 3.3 0 5 0 C5 7.92 5 15.84 5 24 C8.96 24 12.92 24 17 24 C17 25.32 17 26.64 17 28 C11.39 28 5.78 28 0 28 C0 18.76 0 9.52 0 0 Z " fill="#FCFCFC" transform="translate(676,192)"></path><path d="M0 0 C7.26 0 14.52 0 22 0 C22 1.32 22 2.64 22 4 C19.03 4 16.06 4 13 4 C13 11.92 13 19.84 13 28 C11.68 28 10.36 28 9 28 C9 20.08 9 12.16 9 4 C6.03 4 3.06 4 0 4 C0 2.68 0 1.36 0 0 Z " fill="#FBFBFB" transform="translate(489,192)"></path><path d="M0 0 C0.66 0 1.32 0 2 0 C2.20753906 0.54269531 2.41507813 1.08539063 2.62890625 1.64453125 C4.36392372 5.67354671 5.57348949 8.26331713 9.75 10 C10.8225 10.33 11.895 10.66 13 11 C10 13 10 13 7.5 14.1875 C4.0538114 16.68598674 3.42273131 19.03132844 2 23 C1.34 23 0.68 23 0 23 C-0.61875 21.3603125 -0.61875 21.3603125 -1.25 19.6875 C-2.63007326 16.45864937 -3.92425275 14.82622493 -7 13 C-7.99 12.34 -8.98 11.68 -10 11 C-9.16855469 10.56300781 -9.16855469 10.56300781 -8.3203125 10.1171875 C-3.4210148 7.38113153 -3.4210148 7.38113153 -0.5 2.6875 C-0.335 1.800625 -0.17 0.91375 0 0 Z " fill="#DAC28D" transform="translate(709,97)"></path><path d="M0 0 C1.65 0 3.3 0 5 0 C5 9.24 5 18.48 5 28 C3.35 28 1.7 28 0 28 C0 18.76 0 9.52 0 0 Z " fill="#FCFCFC" transform="translate(735,192)"></path><path d="M0 0 C1.65 0 3.3 0 5 0 C5 9.24 5 18.48 5 28 C3.35 28 1.7 28 0 28 C0 18.76 0 9.52 0 0 Z " fill="#F6F6F6" transform="translate(587,192)"></path><path d="M0 0 C1.65 0 3.3 0 5 0 C5 9.24 5 18.48 5 28 C3.35 28 1.7 28 0 28 C0 18.76 0 9.52 0 0 Z " fill="#FCFCFC" transform="translate(250,192)"></path><path d="M0 0 C1.32 0 2.64 0 4 0 C4 9.24 4 18.48 4 28 C2.68 28 1.36 28 0 28 C0 18.76 0 9.52 0 0 Z " fill="#FEFEFE" transform="translate(697,192)"></path><path d="M0 0 C1.32 0 2.64 0 4 0 C4 9.24 4 18.48 4 28 C2.68 28 1.36 28 0 28 C0 18.76 0 9.52 0 0 Z " fill="#FEFEFE" transform="translate(382,192)"></path></svg>